# xmcd
#
# Track frame offsets:
#	150
#	12343
#	24912
#	37386
#	49712
#	61311
#	73278
#	85813
#	99199
#	112818
#	124765
#	137148
#
# Disc length: 1975 seconds
#
# Revision: 1
# Processed by: cddbd v1.5.2PL0 Copyright (c) Steve Scherf et al.
# Submitted via: audiograbber 1.83.01
#
DISCID=9e07b50c
DTITLE=Hank Williams - Vintage Vaults - Volume 3
DYEAR=1900
DGENRE=Country
TTITLE0=Take These Chains From My Heart
TTITLE1=I'm So Lonesome I Could Cry
TTITLE2=(Last Night) I Heard You Crying In
TTITLE3=I Saw The Light
TTITLE4=Kaw-Liga
TTITLE5=You Win Again
TTITLE6=My Sweet Love Ain't Around
TTITLE7=Wedding Bells
TTITLE8=I'd Still Want You
TTITLE9=Why Should We Try Anymore
TTITLE10=Never Again Will I Knock On Your Door
TTITLE11=I'll Never Get Out Of This World Alive
EXTD=
EXTT0=
EXTT1=
EXTT2=
EXTT3=
EXTT4=
EXTT5=
EXTT6=
EXTT7=
EXTT8=
EXTT9=
EXTT10=
EXTT11=
PLAYORDER=
